# xmcd
#
# Track frame offsets:
#	150
#	18750
#	40425
#	54862
#	70200
#	84075
#	113175
#	137437
#	157762
#	172912
#	192937
#
# Disc length: 2748 seconds
#
# Revision: 0
# Processed by: cddbd v1.5.1PL0 Copyright (c) Steve Scherf et al.
# Submitted via: dBpowerAMP V4.0
#
DISCID=790aba0b
DTITLE=Miss Marie - Collection
DYEAR=1900
DGENRE=Blues
TTITLE0=Fadin' Fast
TTITLE1=Tear of the Clouds
TTITLE2=That's Alright
TTITLE3=Be Mine On Valentines Day
TTITLE4=How Can I Be Sure
TTITLE5=One Special Night
TTITLE6=Forever Young
TTITLE7=Look What You've Done
TTITLE8=Runnin' Out
TTITLE9=Jackie
TTITLE10=Melting
EXTD=
EXTT0=
EXTT1=
EXTT2=
EXTT3=
EXTT4=
EXTT5=
EXTT6=
EXTT7=
EXTT8=
EXTT9=
EXTT10=
PLAYORDER=
